<svg width="88" height="88" viewBox="0 0 88 88" fill="white" xmlns="http://www.w3.org/2000/svg">

    <!--Socials Header/Footer-->
    <path id="telegram-light"
          d="M12 4C10.4178 4 8.87103 4.46919 7.55544 5.34824C6.23985 6.22729 5.21447 7.47672 4.60897 8.93853C4.00347 10.4003 3.84504 12.0089 4.15372 13.5607C4.4624 15.1126 5.22433 16.538 6.34315 17.6569C7.46197 18.7757 8.88743 19.5376 10.4393 19.8463C11.9911 20.155 13.5997 19.9965 15.0615 19.391C16.5233 18.7855 17.7727 17.7602 18.6518 16.4446C19.5308 15.129 20 13.5823 20 12C20 9.87827 19.1571 7.84344 17.6569 6.34315C16.1566 4.84285 14.1217 4 12 4ZM15.93 9.48L14.62 15.67C14.52 16.11 14.26 16.21 13.89 16.01L11.89 14.53L10.89 15.46C10.8429 15.5215 10.7824 15.5715 10.7131 15.6062C10.6438 15.6408 10.5675 15.6592 10.49 15.66L10.63 13.66L14.33 10.31C14.5 10.17 14.33 10.09 14.09 10.23L9.55 13.08L7.55 12.46C7.12 12.33 7.11 12.03 7.64 11.83L15.35 8.83C15.73 8.72 16.05 8.94 15.93 9.48Z"
          fill="#000000"/>
    <path id="telegram-dark"
          d="M12 4C10.4178 4 8.87103 4.46919 7.55544 5.34824C6.23985 6.22729 5.21447 7.47672 4.60897 8.93853C4.00347 10.4003 3.84504 12.0089 4.15372 13.5607C4.4624 15.1126 5.22433 16.538 6.34315 17.6569C7.46197 18.7757 8.88743 19.5376 10.4393 19.8463C11.9911 20.155 13.5997 19.9965 15.0615 19.391C16.5233 18.7855 17.7727 17.7602 18.6518 16.4446C19.5308 15.129 20 13.5823 20 12C20 9.87827 19.1571 7.84344 17.6569 6.34315C16.1566 4.84285 14.1217 4 12 4ZM15.93 9.48L14.62 15.67C14.52 16.11 14.26 16.21 13.89 16.01L11.89 14.53L10.89 15.46C10.8429 15.5215 10.7824 15.5715 10.7131 15.6062C10.6438 15.6408 10.5675 15.6592 10.49 15.66L10.63 13.66L14.33 10.31C14.5 10.17 14.33 10.09 14.09 10.23L9.55 13.08L7.55 12.46C7.12 12.33 7.11 12.03 7.64 11.83L15.35 8.83C15.73 8.72 16.05 8.94 15.93 9.48Z"
          fill="#ffffff"/>
    <path id="whatsapp-light" class="cls-1" fill="#000000"
          d="M24,2.5A21.52,21.52,0,0,0,5.15,34.36L2.5,45.5l11.14-2.65A21.5,21.5,0,1,0,24,2.5ZM13.25,12.27h5.86a1,1,0,0,1,1,1,10.4,10.4,0,0,0,.66,3.91,1.93,1.93,0,0,1-.66,2.44l-2.05,2a18.6,18.6,0,0,0,3.52,4.79A18.6,18.6,0,0,0,26.35,30l2-2.05c1-1,1.46-1,2.44-.66a10.4,10.4,0,0,0,3.91.66,1.05,1.05,0,0,1,1,1v5.86a1.05,1.05,0,0,1-1,1,23.68,23.68,0,0,1-15.64-6.84,23.6,23.6,0,0,1-6.84-15.64A1.07,1.07,0,0,1,13.25,12.27Z"/>
    <path id="whatsapp-dark" class="cls-1" fill="#ffffff"
          d="M24,2.5A21.52,21.52,0,0,0,5.15,34.36L2.5,45.5l11.14-2.65A21.5,21.5,0,1,0,24,2.5ZM13.25,12.27h5.86a1,1,0,0,1,1,1,10.4,10.4,0,0,0,.66,3.91,1.93,1.93,0,0,1-.66,2.44l-2.05,2a18.6,18.6,0,0,0,3.52,4.79A18.6,18.6,0,0,0,26.35,30l2-2.05c1-1,1.46-1,2.44-.66a10.4,10.4,0,0,0,3.91.66,1.05,1.05,0,0,1,1,1v5.86a1.05,1.05,0,0,1-1,1,23.68,23.68,0,0,1-15.64-6.84,23.6,23.6,0,0,1-6.84-15.64A1.07,1.07,0,0,1,13.25,12.27Z"/>


    <!--Place Description-->

    <!--Card Link-->

    <!--Cross-->
    <g id="cross" stroke="none" stroke-width="1" fill="#000" fill-rule="evenodd">
        <rect transform="translate(11.313708, 11.313708) rotate(-45.000000) translate(-11.313708, -11.313708) "
              x="10.3137085" y="-3.6862915" width="2" height="30"/>
        <rect transform="translate(11.313708, 11.313708) rotate(-315.000000) translate(-11.313708, -11.313708) "
              x="10.3137085" y="-3.6862915" width="2" height="30"/>
    </g>

    <!--Arrows-->
    <g id="right-arrow" fill="#000">
        <path d="M14.13 9.25H2.848v1.5H14.13L8.7 16.18l1.06 1.061L17 9.999 9.76 2.758 8.7 3.818l5.43 5.431z"/>
    </g>

    <!--Card Link-->
    <g id="cart">
        <path d="M7.5 18C8.32843 18 9 18.6716 9 19.5C9 20.3284 8.32843 21 7.5 21C6.67157 21 6 20.3284 6 19.5C6 18.6716 6.67157 18 7.5 18Z"
              stroke="#1C274C" stroke-width="1.5"/>
        <path d="M16.5 18.0001C17.3284 18.0001 18 18.6716 18 19.5001C18 20.3285 17.3284 21.0001 16.5 21.0001C15.6716 21.0001 15 20.3285 15 19.5001C15 18.6716 15.6716 18.0001 16.5 18.0001Z"
              stroke="#1C274C" stroke-width="1.5"/>
        <path d="M2 3L2.26121 3.09184C3.5628 3.54945 4.2136 3.77826 4.58584 4.32298C4.95808 4.86771 4.95808 5.59126 4.95808 7.03836V9.76C4.95808 12.7016 5.02132 13.6723 5.88772 14.5862C6.75412 15.5 8.14857 15.5 10.9375 15.5H12M16.2404 15.5C17.8014 15.5 18.5819 15.5 19.1336 15.0504C19.6853 14.6008 19.8429 13.8364 20.158 12.3075L20.6578 9.88275C21.0049 8.14369 21.1784 7.27417 20.7345 6.69708C20.2906 6.12 18.7738 6.12 17.0888 6.12H11.0235M4.95808 6.12H7"
              stroke="#1C274C" stroke-width="1.5" stroke-linecap="round"/>
    </g>

    <!--Tech Stack-->


    <!--Logo-->

    <!--Plus-Minus-->
    <g id="plus">
        <rect width="24" height="24" fill="white"/>
        <path d="M12 6V18" stroke="#000000" stroke-linecap="round" stroke-linejoin="round"/>
        <path d="M6 12H18" stroke="#000000" stroke-linecap="round" stroke-linejoin="round"/>
    </g>
    <g id="minus">
        <rect width="24" height="24" fill="white"/>
        <path d="M6 12H18" stroke="#000000" stroke-linecap="round" stroke-linejoin="round"/>
    </g>

    <!--Line-->


    <!--GoTopArrow-->
    <path id="goUpArrow"
          d="M18.78 15.78a.749.749 0 0 1-1.06 0L12 10.061 6.28 15.78a.749.749 0 1 1-1.06-1.06l6.25-6.25a.749.749 0 0 1 1.06 0l6.25 6.25a.749.749 0 0 1 0 1.06Z"
          fill="black"/>
    <path id="goTopArrow2"
          d="M84,6532.61035 L85.4053672,6534 L94.0131154,6525.73862 L94.9311945,6526.61986 L94.9261501,6526.61502 L102.573446,6533.95545 L104,6532.58614 C101.8864,6530.55736 95.9854722,6524.89321 94.0131154,6523 C92.5472155,6524.40611 93.9757869,6523.03486 84,6532.61035"
          fill="black"/>
    <g id="goTopArrow3" fill="#42446E">
        <path d="M12 18L12 6M12 6L7 11M12 6L17 11" stroke="#D9D9D9" stroke-linecap="round"
              stroke-linejoin="round"/>
    </g>
    <g id="goTopArrow4">
        <path d="M12 18L12 6M12 6L7 11M12 6L17 11" stroke="#42446E" stroke-linecap="round" stroke-linejoin="round"/>
    </g>

    <!--Theme-->
    <g id="moon">
        <path d="m36.25 6.48c.75-.15 1.93.94 2.75 1.52s4 2.63 4.18 4.13-.84 3.62 1 4.75 4.25 2.81 4.25 4.25-1 4.34.38 5.34 2.34 1.1 2.94 3-1 5.6-1.1 6.19a2.41 2.41 0 0 0 .78 1.69 3.18 3.18 0 0 1 .35 4c-1.28 2-2.72 3.28-2.44 3.91a5.18 5.18 0 0 1 0 3.5c-.53 1-4.22 4.43-6.19 6.06s-2.16 2-2.87 2.19a20.33 20.33 0 0 1 -13.6-1.82c-6.37-3.47-11.12-8-13.4-14.84s-1.88-11.06-.32-15.78 5.66-9.38 9.25-12.41 11.19-5.16 14.04-5.68z"
              fill="#1d1d1b"/>
        <path d="m36.37 7.86c.19 0 3.41 3.28 4.19 3.75s1 .78 1 1.37a11.82 11.82 0 0 0 -.19 3 7.12 7.12 0 0 0 .25 1.13 3.31 3.31 0 0 0 -.94 2.31c0 1.5.35 2.31 1.38 2.44a2.62 2.62 0 0 0 2.12-.94 3.29 3.29 0 0 0 .69-1.19s1.56 1.13 1.69 1.88-.82 4.43 0 5.12 3.44 2.75 3.5 3.53a9.73 9.73 0 0 1 -.38 2.35 2.9 2.9 0 0 0 -2.31 1.28 6.66 6.66 0 0 0 -1.28 3.65c0 .91-.28 1.82.53 3s1.19 1.29 1.53 1.47.85.41.85.41a14.89 14.89 0 0 0 -1.66 2.41c0 .37.47 2.18.28 2.78a2.8 2.8 0 0 1 -.81 1.09s-.13-.78-1.25-.62a2.85 2.85 0 0 0 -2.13 1.4c-.15.44.66 2.16.35 2.56a8 8 0 0 1 -4.07 2.79 26 26 0 0 1 -5.87.18c-.84-.09-1.59-.12-1.59-.12a19 19 0 0 0 -2.66-4.13c-1.09-.93-2.81-.76-3.59-.76a21.44 21.44 0 0 1 -3.06.19 27.8 27.8 0 0 1 -7-9.25 21.49 21.49 0 0 1 -1.5-15.25c1.41-5.15 6.09-10 9.5-12.56a39.59 39.59 0 0 1 12.43-5.27z"
              fill="#e6e4da"/>
        <path d="m42.25 18.2a8.3 8.3 0 0 1 1.46 1 2.92 2.92 0 0 1 -.71 1.25c-.44.31-1 .66-1.32.22s-.06-2.38.57-2.47z"
              fill="#ffffff"/>
        <path d="m30.59 20.29c2.5-.36 4.59 1.72 5.44 4.94a5.3 5.3 0 0 1 -4.44 6.6 6.1 6.1 0 0 1 -6.63-4c-1.03-2.72.5-6.83 5.63-7.54z"
              fill="#1d1d1b"/>
        <path d="m30.56 22c1.44-.09 3.25.72 3.72 3.44s-1 4.28-2.63 4.53-3.94 0-4.72-2.41.07-5.39 3.63-5.56z"
              fill="#ffffff"/>
        <path d="m21.31 19.11c.23-.07.72.75.72.75a9.54 9.54 0 0 0 -2.75 3.56c-1 2.28-1 3.41-1.22 3.53s-.88.06-.88-.09a9.51 9.51 0 0 1 1.28-4c1.16-1.97 1.88-3.47 2.85-3.75z"
              fill="#1d1d1b"/>
        <path d="m19.25 33.54c1.52-.46 2.12 1.07 2.06 2.1a1.89 1.89 0 0 1 -2.56 1.59c-1.29-.56-2.35-2.81.5-3.69z"
              fill="#1d1d1b"/>
        <g fill="#ffffff">
            <path d="m19.28 34.45c.53-.31 1.22.34 1.06 1.06a.91.91 0 0 1 -1.34.72c-.63-.23-1-1.03.28-1.78z"/>
            <path d="m49.06 33.51c.21-.13.44.28.31.66s-.94 1.28-.59 2.34 1.34 1.91 1.43 2.75.16 1-.06 1.44-.31.81-.56.81a2.93 2.93 0 0 1 -2.34-1.93c-.47-1.58-.57-4.58 1.81-6.07z"/>
            <path d="m44.46 49.48a1.74 1.74 0 0 1 1.5-.62c.16.09.29 0 .22.25a6.75 6.75 0 0 1 -1.06 1.47c-.31.28-.47.65-.59.43a2.31 2.31 0 0 1 -.07-1.53z"/>
            <path d="m24.71 51.33a4.35 4.35 0 0 1 3.94.21c1.31 1 2.72 3.22 2.35 3.29a7.68 7.68 0 0 1 -3.88-1.54c-1.81-1.29-2.5-1.81-2.41-1.96z"/>
        </g>
        <path d="m25.25 40.79c.25.19 1.75 3 1.56 3.19s-.19.31-.35.22a16.12 16.12 0 0 1 -1.84-3c.09-.2.63-.41.63-.41z"
              fill="#1d1d1b"/>
        <path d="m23.37 41.79a18 18 0 0 1 1.91 3.72c-.16.16-.35.41-.44.32a27.79 27.79 0 0 1 -2.19-3.83 1.08 1.08 0 0 1 .72-.21z"
              fill="#1d1d1b"/>
        <path d="m20.53 42.61c0-.21 1-.32 1.15-.19a25.06 25.06 0 0 1 1.75 3.72c-.06.15-.09.4-.34.28a24.18 24.18 0 0 1 -2.56-3.81z"
              fill="#1d1d1b"/>
    </g>
    <g id="sun">
        <path fill-rule="evenodd" clip-rule="evenodd" fill="#394240"
              d="M32,14.002c-9.941,0-18,8.059-18,18s8.059,18,18,18 s18-8.059,18-18S41.941,14.002,32,14.002z M32,48.002c-8.837,0-16-7.164-16-16s7.163-16,16-16s16,7.164,16,16 S40.837,48.002,32,48.002z"/>
        <path fill-rule="evenodd" clip-rule="evenodd" fill="#394240"
              d="M63,31H53c-0.553,0-1,0.447-1,1s0.447,1,1,1h10 c0.553,0,1-0.447,1-1S63.553,31,63,31z"/>
        <path fill-rule="evenodd" clip-rule="evenodd" fill="#394240"
              d="M11.457,36.469l-3.863,1.035 c-0.534,0.145-0.851,0.693-0.707,1.227c0.143,0.533,0.69,0.85,1.225,0.705l3.863-1.035c0.533-0.143,0.85-0.689,0.707-1.225 C12.539,36.643,11.99,36.326,11.457,36.469z"/>
        <path fill-rule="evenodd" clip-rule="evenodd" fill="#394240"
              d="M49.32,22c0.277,0.479,0.888,0.643,1.367,0.365l8.66-5 c0.479-0.275,0.643-0.887,0.365-1.365c-0.275-0.479-0.887-0.643-1.365-0.365l-8.66,5C49.208,20.912,49.045,21.521,49.32,22z"/>
        <path fill-rule="evenodd" clip-rule="evenodd" fill="#394240"
              d="M17.858,46.143c-0.39-0.391-1.023-0.389-1.414,0l-2.828,2.828 c-0.391,0.391-0.39,1.025,0.001,1.414c0.39,0.391,1.022,0.391,1.413,0l2.828-2.828C18.249,47.168,18.249,46.533,17.858,46.143z"/>
        <path fill-rule="evenodd" clip-rule="evenodd" fill="#394240"
              d="M42,14.68c0.479,0.275,1.09,0.113,1.367-0.367l5-8.66 C48.644,5.174,48.48,4.562,48,4.287c-0.478-0.277-1.088-0.113-1.365,0.365l-4.999,8.662C41.358,13.793,41.522,14.402,42,14.68z"/>
        <path fill-rule="evenodd" clip-rule="evenodd" fill="#394240"
              d="M26.824,51.318c-0.532-0.143-1.08,0.176-1.225,0.707l-1.035,3.863 c-0.143,0.535,0.176,1.082,0.709,1.225c0.533,0.145,1.08-0.172,1.223-0.707l1.035-3.863C27.676,52.012,27.359,51.463,26.824,51.318 z"/>
        <path fill-rule="evenodd" clip-rule="evenodd" fill="#394240"
              d="M32,12c0.554,0,1.001-0.447,1.002-1V1c0-0.553-0.447-1-1.002-1 c-0.551,0-0.998,0.447-0.999,1l0.001,10C31.002,11.553,31.449,12,32,12z"/>
        <path fill-rule="evenodd" clip-rule="evenodd" fill="#394240"
              d="M38.402,52.025c-0.141-0.533-0.689-0.85-1.225-0.707 c-0.533,0.143-0.848,0.691-0.707,1.225l1.035,3.863c0.144,0.535,0.693,0.85,1.227,0.707s0.849-0.689,0.705-1.225L38.402,52.025z"/>
        <path fill-rule="evenodd" clip-rule="evenodd" fill="#394240"
              d="M20.637,14.312c0.275,0.479,0.887,0.643,1.363,0.367 c0.48-0.277,0.645-0.887,0.368-1.367l-5-8.66C17.092,4.174,16.48,4.01,16,4.287c-0.477,0.275-0.641,0.887-0.365,1.365 L20.637,14.312z"/>
        <path fill-rule="evenodd" clip-rule="evenodd" fill="#394240"
              d="M47.558,46.141c-0.388-0.389-1.022-0.389-1.414,0 c-0.391,0.391-0.388,1.025,0,1.414l2.828,2.828c0.392,0.393,1.025,0.389,1.415,0c0.391-0.391,0.391-1.021-0.001-1.414 L47.558,46.141z"/>
        <path fill-rule="evenodd" clip-rule="evenodd" fill="#394240"
              d="M4.654,17.365l8.662,4.998c0.477,0.277,1.088,0.113,1.363-0.363 c0.277-0.48,0.115-1.09-0.364-1.367l-8.661-5C5.176,15.355,4.564,15.52,4.287,16C4.013,16.477,4.176,17.088,4.654,17.365z"/>
        <path fill-rule="evenodd" clip-rule="evenodd" fill="#394240"
              d="M52.027,38.4l3.863,1.035c0.535,0.145,1.082-0.176,1.225-0.709 c0.144-0.533-0.172-1.08-0.707-1.223l-3.863-1.035c-0.531-0.145-1.081,0.172-1.225,0.707C51.176,37.709,51.496,38.256,52.027,38.4z "/>
        <path fill-rule="evenodd" clip-rule="evenodd" fill="#394240"
              d="M12,32c0.001-0.555-0.445-1-0.998-1.002L1,31 c-0.552,0-1,0.445-1,1c0.001,0.551,0.448,1,1.001,1l10.001-0.002C11.553,32.998,12.001,32.551,12,32z"/>
        <path fill-rule="evenodd" clip-rule="evenodd" fill="#394240"
              d="M52.545,27.529l3.863-1.035c0.535-0.143,0.85-0.693,0.706-1.227 c-0.142-0.531-0.688-0.848-1.224-0.705l-3.863,1.035c-0.533,0.141-0.85,0.691-0.707,1.225 C51.461,27.355,52.012,27.67,52.545,27.529z"/>
        <circle fill-rule="evenodd" clip-rule="evenodd" fill="#F9EBB2" cx="32" cy="32" r="16"/>
        <path fill-rule="evenodd" clip-rule="evenodd" fill="#394240"
              d="M14.68,42c-0.275-0.48-0.886-0.645-1.365-0.369l-8.661,5.002 C4.176,46.91,4.01,47.52,4.287,48c0.277,0.477,0.889,0.641,1.367,0.365l8.66-5.002C14.791,43.088,14.957,42.479,14.68,42z"/>
        <path fill-rule="evenodd" clip-rule="evenodd" fill="#394240"
              d="M46.144,17.855c0.389,0.393,1.022,0.389,1.414,0l2.828-2.828 c0.392-0.391,0.39-1.023-0.002-1.414c-0.388-0.391-1.021-0.391-1.412,0l-2.828,2.828C45.752,16.83,45.754,17.465,46.144,17.855z"/>
        <path fill-rule="evenodd" clip-rule="evenodd" fill="#394240"
              d="M22,49.32c-0.479-0.277-1.088-0.113-1.365,0.363l-5,8.664 c-0.275,0.477-0.115,1.088,0.365,1.365c0.479,0.273,1.09,0.109,1.367-0.367l4.998-8.662C22.641,50.207,22.48,49.596,22,49.32z"/>
        <path fill-rule="evenodd" clip-rule="evenodd" fill="#394240"
              d="M37.178,12.68c0.531,0.145,1.078-0.176,1.225-0.707l1.035-3.863 c0.143-0.535-0.176-1.084-0.709-1.225c-0.531-0.145-1.08,0.172-1.223,0.707l-1.035,3.863C36.324,11.986,36.645,12.535,37.178,12.68 z"/>
        <path fill-rule="evenodd" clip-rule="evenodd" fill="#394240"
              d="M32,52c-0.553-0.002-0.998,0.445-1,0.998l0.002,10.004 C31.002,63.551,31.445,64,32,64c0.553,0,1-0.449,1.001-1l-0.003-10.002C32.998,52.447,32.555,52,32,52z"/>
        <path fill-rule="evenodd" clip-rule="evenodd" fill="#394240"
              d="M25.6,11.973c0.139,0.533,0.691,0.85,1.225,0.707 c0.532-0.141,0.846-0.691,0.707-1.225l-1.035-3.863c-0.145-0.535-0.693-0.852-1.227-0.707c-0.531,0.143-0.85,0.689-0.705,1.225 L25.6,11.973z"/>
        <path fill-rule="evenodd" clip-rule="evenodd" fill="#394240"
              d="M43.363,49.686C43.088,49.209,42.48,49.043,42,49.32 c-0.479,0.275-0.641,0.885-0.367,1.365l5.004,8.66c0.275,0.479,0.883,0.645,1.363,0.367c0.479-0.277,0.642-0.889,0.367-1.367 L43.363,49.686z"/>
        <path fill-rule="evenodd" clip-rule="evenodd" fill="#394240"
              d="M16.443,17.855c0.387,0.395,1.023,0.391,1.414,0 c0.391-0.387,0.387-1.02,0-1.414l-2.828-2.828c-0.393-0.391-1.025-0.389-1.415,0.002c-0.39,0.389-0.392,1.021,0.001,1.412 L16.443,17.855z"/>
        <path fill-rule="evenodd" clip-rule="evenodd" fill="#394240"
              d="M59.348,46.633l-8.663-4.998 c-0.478-0.275-1.087-0.115-1.363,0.367c-0.278,0.477-0.112,1.086,0.364,1.363l8.664,5c0.477,0.275,1.086,0.115,1.363-0.365 C59.988,47.52,59.824,46.91,59.348,46.633z"/>
        <path fill-rule="evenodd" clip-rule="evenodd" fill="#394240"
              d="M11.974,25.598L8.11,24.562c-0.536-0.143-1.083,0.176-1.225,0.709 c-0.144,0.531,0.171,1.08,0.707,1.225l3.863,1.033c0.531,0.146,1.081-0.174,1.225-0.707C12.825,26.293,12.505,25.746,11.974,25.598 z"/>
        <path fill-rule="evenodd" clip-rule="evenodd" fill="#394240"
              d="M32,20.002c-0.553,0-1,0.447-1,1s0.447,1,1,1 c5.522,0,10,4.477,10,10c0,0.553,0.447,1,1,1s1-0.447,1-1C44,25.375,38.627,20.002,32,20.002z"/>
    </g>
    <g id="sun2">
        <path d="M20.52 59.717l7.027-7.2a20.87 20.87 0 0 1-6.904-2.87l-.123 10.07" fill="#ffff00"/>
        <path d="M43.48 4.284l-7.025 7.199a20.872 20.872 0 0 1 6.904 2.871l.121-10.07" fill="#ffff00"/>
        <path d="M11.484 36.454l-7.201 7.025l10.07-.122a20.85 20.85 0 0 1-2.869-6.903" fill="#ffff00"/>
        <path d="M52.516 27.547l7.201-7.027l-10.07.123a20.856 20.856 0 0 1 2.869 6.904" fill="#ffff00"/>
        <path d="M14.354 20.642l-10.07-.123l7.201 7.027a20.805 20.805 0 0 1 2.869-6.904" fill="#ffff00"/>
        <path d="M49.646 43.358l10.07.122l-7.201-7.026a20.814 20.814 0 0 1-2.869 6.904" fill="#ffff00"/>
        <path d="M27.547 11.483l-7.027-7.2l.123 10.07a20.87 20.87 0 0 1 6.904-2.87" fill="#ffff00"/>
        <path d="M36.453 52.517l7.027 7.199l-.123-10.069a20.891 20.891 0 0 1-6.904 2.87" fill="#ffff00"/>
        <path d="M14.752 43.962l-3.967 9.251l9.252-3.965a21.104 21.104 0 0 1-5.285-5.286" fill="#ffff00"/>
        <path d="M49.248 20.039l3.965-9.252l-9.25 3.965a21.108 21.108 0 0 1 5.285 5.287" fill="#ffff00"/>
        <path d="M11 32c0-1.278.133-2.524.352-3.741L2 31.999l9.352 3.74A21.034 21.034 0 0 1 11 32z"
              fill="#ffff00"/>
        <path d="M62 32l-9.352-3.741C52.867 29.476 53 30.722 53 32c0 1.279-.133 2.525-.352 3.741L62 32z"
              fill="#ffff00"/>
        <path d="M20.039 14.751l-9.252-3.965l3.965 9.252a21.149 21.149 0 0 1 5.287-5.287" fill="#ffff00"/>
        <path d="M43.961 49.248l9.252 3.965l-3.965-9.251a21.128 21.128 0 0 1-5.287 5.286" fill="#ffff00"/>
        <path d="M35.74 11.352L32 2l-3.74 9.352C29.475 11.133 30.721 11 32 11s2.525.133 3.74.352" fill="#ffff00"/>
        <path d="M28.26 52.648L32 62l3.74-9.352c-1.215.219-2.461.352-3.74.352s-2.525-.133-3.74-.352"
              fill="#ffff00"/>
        <circle cx="32" cy="32" r="19" fill="#ffff00"/>
    </g>
</svg>